<?xml version="1.0" encoding="UTF-8" standalone="no"?>
<!DOCTYPE svg PUBLIC "-//W3C//DTD SVG 1.1//EN"
 "http://www.w3.org/Graphics/SVG/1.1/DTD/svg11.dtd">
<!-- Generated by graphviz version 2.43.0 (0)
 -->
<!-- Title: trail_3.cc Pages: 1 -->
<svg width="3067pt" height="95pt"
 viewBox="0.00 0.00 3066.50 95.00" xmlns="http://www.w3.org/2000/svg" xmlns:xlink="http://www.w3.org/1999/xlink">
<g id="graph0" class="graph" transform="scale(1 1) rotate(0) translate(4 91)">
<title>trail_3.cc</title>
<polygon fill="white" stroke="transparent" points="-4,4 -4,-91 3062.5,-91 3062.5,4 -4,4"/>
<!-- Node1 -->
<g id="node1" class="node">
<title>Node1</title>
<g id="a_node1"><a xlink:title=" ">
<polygon fill="#bfbfbf" stroke="black" points="1509,-67.5 1509,-86.5 1570,-86.5 1570,-67.5 1509,-67.5"/>
<text text-anchor="middle" x="1539.5" y="-74.5" font-family="Helvetica,sans-Serif" font-size="10.00">trail_3.cc</text>
</a>
</g>
</g>
<!-- Node2 -->
<g id="node2" class="node">
<title>Node2</title>
<g id="a_node2"><a xlink:title=" ">
<polygon fill="white" stroke="#bfbfbf" points="0,-0.5 0,-30.5 129,-30.5 129,-0.5 0,-0.5"/>
<text text-anchor="start" x="8" y="-18.5" font-family="Helvetica,sans-Serif" font-size="10.00">deal.II/base/quadrature</text>
<text text-anchor="middle" x="64.5" y="-7.5" font-family="Helvetica,sans-Serif" font-size="10.00">_lib.h</text>
</a>
</g>
</g>
<!-- Node1&#45;&gt;Node2 -->
<g id="edge1" class="edge">
<title>Node1&#45;&gt;Node2</title>
<path fill="none" stroke="midnightblue" d="M1508.84,-75.7C1331.76,-73.87 437.65,-63.2 139.64,-31.09"/>
<polygon fill="midnightblue" stroke="midnightblue" points="139.62,-27.57 129.29,-29.94 138.84,-34.53 139.62,-27.57"/>
</g>
<!-- Node3 -->
<g id="node3" class="node">
<title>Node3</title>
<g id="a_node3"><a xlink:title=" ">
<polygon fill="white" stroke="#bfbfbf" points="147,-6 147,-25 272,-25 272,-6 147,-6"/>
<text text-anchor="middle" x="209.5" y="-13" font-family="Helvetica,sans-Serif" font-size="10.00">deal.II/base/function.h</text>
</a>
</g>
</g>
<!-- Node1&#45;&gt;Node3 -->
<g id="edge2" class="edge">
<title>Node1&#45;&gt;Node3</title>
<path fill="none" stroke="midnightblue" d="M1508.74,-75.59C1340.39,-73.26 529.17,-60.63 280.5,-31 272.33,-30.03 263.7,-28.6 255.38,-27.03"/>
<polygon fill="midnightblue" stroke="midnightblue" points="255.92,-23.57 245.43,-25.04 254.55,-30.43 255.92,-23.57"/>
</g>
<!-- Node4 -->
<g id="node4" class="node">
<title>Node4</title>
<g id="a_node4"><a xlink:title=" ">
<polygon fill="white" stroke="#bfbfbf" points="290,-6 290,-25 405,-25 405,-6 290,-6"/>
<text text-anchor="middle" x="347.5" y="-13" font-family="Helvetica,sans-Serif" font-size="10.00">deal.II/base/tensor.h</text>
</a>
</g>
</g>
<!-- Node1&#45;&gt;Node4 -->
<g id="edge3" class="edge">
<title>Node1&#45;&gt;Node4</title>
<path fill="none" stroke="midnightblue" d="M1508.98,-75.49C1352.07,-72.79 635.07,-59.06 414.5,-31 406.95,-30.04 398.99,-28.65 391.29,-27.11"/>
<polygon fill="midnightblue" stroke="midnightblue" points="391.89,-23.66 381.39,-25.03 390.45,-30.51 391.89,-23.66"/>
</g>
<!-- Node5 -->
<g id="node5" class="node">
<title>Node5</title>
<g id="a_node5"><a xlink:title=" ">
<polygon fill="white" stroke="#bfbfbf" points="423.5,-6 423.5,-25 529.5,-25 529.5,-6 423.5,-6"/>
<text text-anchor="middle" x="476.5" y="-13" font-family="Helvetica,sans-Serif" font-size="10.00">deal.II/lac/vector.h</text>
</a>
</g>
</g>
<!-- Node1&#45;&gt;Node5 -->
<g id="edge4" class="edge">
<title>Node1&#45;&gt;Node5</title>
<path fill="none" stroke="midnightblue" d="M1508.53,-75.38C1361.49,-72.31 732.79,-57.85 538.5,-31 531.73,-30.06 524.62,-28.74 517.72,-27.26"/>
<polygon fill="midnightblue" stroke="midnightblue" points="518.36,-23.81 507.83,-25.01 516.81,-30.64 518.36,-23.81"/>
</g>
<!-- Node6 -->
<g id="node6" class="node">
<title>Node6</title>
<g id="a_node6"><a xlink:title=" ">
<polygon fill="white" stroke="#bfbfbf" points="548,-6 548,-25 677,-25 677,-6 548,-6"/>
<text text-anchor="middle" x="612.5" y="-13" font-family="Helvetica,sans-Serif" font-size="10.00">deal.II/lac/full_matrix.h</text>
</a>
</g>
</g>
<!-- Node1&#45;&gt;Node6 -->
<g id="edge5" class="edge">
<title>Node1&#45;&gt;Node6</title>
<path fill="none" stroke="midnightblue" d="M1508.72,-75.97C1397.42,-75.52 1005.56,-71.01 685.5,-31 677.3,-29.97 668.63,-28.56 660.25,-27"/>
<polygon fill="midnightblue" stroke="midnightblue" points="660.7,-23.53 650.22,-25.06 659.37,-30.4 660.7,-23.53"/>
</g>
<!-- Node7 -->
<g id="node7" class="node">
<title>Node7</title>
<g id="a_node7"><a xlink:title=" ">
<polygon fill="white" stroke="#bfbfbf" points="695,-0.5 695,-30.5 794,-30.5 794,-0.5 695,-0.5"/>
<text text-anchor="start" x="703" y="-18.5" font-family="Helvetica,sans-Serif" font-size="10.00">deal.II/lac/sparse</text>
<text text-anchor="middle" x="744.5" y="-7.5" font-family="Helvetica,sans-Serif" font-size="10.00">_matrix.h</text>
</a>
</g>
</g>
<!-- Node1&#45;&gt;Node7 -->
<g id="edge6" class="edge">
<title>Node1&#45;&gt;Node7</title>
<path fill="none" stroke="midnightblue" d="M1508.79,-76.09C1408.69,-75.98 1082.74,-72.36 804.56,-30.95"/>
<polygon fill="midnightblue" stroke="midnightblue" points="804.68,-27.43 794.27,-29.4 803.63,-34.35 804.68,-27.43"/>
</g>
<!-- Node8 -->
<g id="node8" class="node">
<title>Node8</title>
<g id="a_node8"><a xlink:title=" ">
<polygon fill="white" stroke="#bfbfbf" points="812.5,-0.5 812.5,-30.5 922.5,-30.5 922.5,-0.5 812.5,-0.5"/>
<text text-anchor="start" x="820.5" y="-18.5" font-family="Helvetica,sans-Serif" font-size="10.00">deal.II/lac/dynamic</text>
<text text-anchor="middle" x="867.5" y="-7.5" font-family="Helvetica,sans-Serif" font-size="10.00">_sparsity_pattern.h</text>
</a>
</g>
</g>
<!-- Node1&#45;&gt;Node8 -->
<g id="edge7" class="edge">
<title>Node1&#45;&gt;Node8</title>
<path fill="none" stroke="midnightblue" d="M1508.96,-75.35C1420.94,-73.12 1159.15,-64.12 932.64,-31.01"/>
<polygon fill="midnightblue" stroke="midnightblue" points="932.96,-27.52 922.56,-29.52 931.94,-34.45 932.96,-27.52"/>
</g>
<!-- Node9 -->
<g id="node9" class="node">
<title>Node9</title>
<g id="a_node9"><a xlink:title=" ">
<polygon fill="white" stroke="#bfbfbf" points="940.5,-6 940.5,-25 1062.5,-25 1062.5,-6 940.5,-6"/>
<text text-anchor="middle" x="1001.5" y="-13" font-family="Helvetica,sans-Serif" font-size="10.00">deal.II/lac/solver_cg.h</text>
</a>
</g>
</g>
<!-- Node1&#45;&gt;Node9 -->
<g id="edge8" class="edge">
<title>Node1&#45;&gt;Node9</title>
<path fill="none" stroke="midnightblue" d="M1508.97,-74.21C1434.1,-69.59 1235.54,-55.8 1071.5,-31 1064.08,-29.88 1056.25,-28.48 1048.63,-26.99"/>
<polygon fill="midnightblue" stroke="midnightblue" points="1049.28,-23.55 1038.78,-25 1047.89,-30.41 1049.28,-23.55"/>
</g>
<!-- Node10 -->
<g id="node10" class="node">
<title>Node10</title>
<g id="a_node10"><a xlink:title=" ">
<polygon fill="white" stroke="#bfbfbf" points="1081,-6 1081,-25 1218,-25 1218,-6 1081,-6"/>
<text text-anchor="middle" x="1149.5" y="-13" font-family="Helvetica,sans-Serif" font-size="10.00">deal.II/lac/precondition.h</text>
</a>
</g>
</g>
<!-- Node1&#45;&gt;Node10 -->
<g id="edge9" class="edge">
<title>Node1&#45;&gt;Node10</title>
<path fill="none" stroke="midnightblue" d="M1508.78,-72.03C1452.62,-64.68 1329.67,-48.12 1226.5,-31 1218.86,-29.73 1210.8,-28.31 1202.9,-26.87"/>
<polygon fill="midnightblue" stroke="midnightblue" points="1203.48,-23.41 1193.01,-25.03 1202.21,-30.3 1203.48,-23.41"/>
</g>
<!-- Node11 -->
<g id="node11" class="node">
<title>Node11</title>
<g id="a_node11"><a xlink:title=" ">
<polygon fill="white" stroke="#bfbfbf" points="1236,-0.5 1236,-30.5 1331,-30.5 1331,-0.5 1236,-0.5"/>
<text text-anchor="start" x="1244" y="-18.5" font-family="Helvetica,sans-Serif" font-size="10.00">deal.II/lac/affine</text>
<text text-anchor="middle" x="1283.5" y="-7.5" font-family="Helvetica,sans-Serif" font-size="10.00">_constraints.h</text>
</a>
</g>
</g>
<!-- Node1&#45;&gt;Node11 -->
<g id="edge10" class="edge">
<title>Node1&#45;&gt;Node11</title>
<path fill="none" stroke="midnightblue" d="M1508.93,-69.44C1471.56,-61.35 1406.14,-46.97 1341.14,-31.36"/>
<polygon fill="midnightblue" stroke="midnightblue" points="1341.67,-27.89 1331.13,-28.94 1340.03,-34.69 1341.67,-27.89"/>
</g>
<!-- Node12 -->
<g id="node12" class="node">
<title>Node12</title>
<g id="a_node12"><a xlink:title=" ">
<polygon fill="white" stroke="#bfbfbf" points="1349,-6 1349,-25 1446,-25 1446,-6 1349,-6"/>
<text text-anchor="middle" x="1397.5" y="-13" font-family="Helvetica,sans-Serif" font-size="10.00">deal.II/grid/tria.h</text>
</a>
</g>
</g>
<!-- Node1&#45;&gt;Node12 -->
<g id="edge11" class="edge">
<title>Node1&#45;&gt;Node12</title>
<path fill="none" stroke="midnightblue" d="M1519.15,-67.48C1495.11,-57.4 1454.9,-40.55 1427.34,-29"/>
<polygon fill="midnightblue" stroke="midnightblue" points="1428.38,-25.65 1417.81,-25.01 1425.68,-32.1 1428.38,-25.65"/>
</g>
<!-- Node13 -->
<g id="node13" class="node">
<title>Node13</title>
<g id="a_node13"><a xlink:title=" ">
<polygon fill="white" stroke="#bfbfbf" points="1464,-6 1464,-25 1615,-25 1615,-6 1464,-6"/>
<text text-anchor="middle" x="1539.5" y="-13" font-family="Helvetica,sans-Serif" font-size="10.00">deal.II/grid/grid_generator.h</text>
</a>
</g>
</g>
<!-- Node1&#45;&gt;Node13 -->
<g id="edge12" class="edge">
<title>Node1&#45;&gt;Node13</title>
<path fill="none" stroke="midnightblue" d="M1539.5,-67.48C1539.5,-59.08 1539.5,-45.98 1539.5,-35.16"/>
<polygon fill="midnightblue" stroke="midnightblue" points="1543,-35.01 1539.5,-25.01 1536,-35.01 1543,-35.01"/>
</g>
<!-- Node14 -->
<g id="node14" class="node">
<title>Node14</title>
<g id="a_node14"><a xlink:title=" ">
<polygon fill="white" stroke="#bfbfbf" points="1633.5,-6 1633.5,-25 1791.5,-25 1791.5,-6 1633.5,-6"/>
<text text-anchor="middle" x="1712.5" y="-13" font-family="Helvetica,sans-Serif" font-size="10.00">deal.II/grid/grid_refinement.h</text>
</a>
</g>
</g>
<!-- Node1&#45;&gt;Node14 -->
<g id="edge13" class="edge">
<title>Node1&#45;&gt;Node14</title>
<path fill="none" stroke="midnightblue" d="M1564.29,-67.48C1594.09,-57.22 1644.29,-39.96 1677.9,-28.4"/>
<polygon fill="midnightblue" stroke="midnightblue" points="1679.44,-31.57 1687.76,-25.01 1677.16,-24.95 1679.44,-31.57"/>
</g>
<!-- Node15 -->
<g id="node15" class="node">
<title>Node15</title>
<g id="a_node15"><a xlink:title=" ">
<polygon fill="white" stroke="#bfbfbf" points="1809.5,-6 1809.5,-25 1949.5,-25 1949.5,-6 1809.5,-6"/>
<text text-anchor="middle" x="1879.5" y="-13" font-family="Helvetica,sans-Serif" font-size="10.00">deal.II/dofs/dof_handler.h</text>
</a>
</g>
</g>
<!-- Node1&#45;&gt;Node15 -->
<g id="edge14" class="edge">
<title>Node1&#45;&gt;Node15</title>
<path fill="none" stroke="midnightblue" d="M1570.06,-70.84C1618.81,-62.59 1717.2,-45.82 1800.5,-31 1807.95,-29.67 1815.78,-28.26 1823.51,-26.85"/>
<polygon fill="midnightblue" stroke="midnightblue" points="1824.36,-30.26 1833.56,-25.02 1823.1,-23.37 1824.36,-30.26"/>
</g>
<!-- Node16 -->
<g id="node16" class="node">
<title>Node16</title>
<g id="a_node16"><a xlink:title=" ">
<polygon fill="white" stroke="#bfbfbf" points="1967.5,-6 1967.5,-25 2095.5,-25 2095.5,-6 1967.5,-6"/>
<text text-anchor="middle" x="2031.5" y="-13" font-family="Helvetica,sans-Serif" font-size="10.00">deal.II/dofs/dof_tools.h</text>
</a>
</g>
</g>
<!-- Node1&#45;&gt;Node16 -->
<g id="edge15" class="edge">
<title>Node1&#45;&gt;Node16</title>
<path fill="none" stroke="midnightblue" d="M1570.11,-73.65C1639.48,-68.13 1813.85,-53.09 1958.5,-31 1966.05,-29.85 1974,-28.45 1981.77,-26.99"/>
<polygon fill="midnightblue" stroke="midnightblue" points="1982.68,-30.38 1991.83,-25.05 1981.35,-23.51 1982.68,-30.38"/>
</g>
<!-- Node17 -->
<g id="node17" class="node">
<title>Node17</title>
<g id="a_node17"><a xlink:title=" ">
<polygon fill="white" stroke="#bfbfbf" points="2114,-6 2114,-25 2233,-25 2233,-6 2114,-6"/>
<text text-anchor="middle" x="2173.5" y="-13" font-family="Helvetica,sans-Serif" font-size="10.00">deal.II/fe/fe_values.h</text>
</a>
</g>
</g>
<!-- Node1&#45;&gt;Node17 -->
<g id="edge16" class="edge">
<title>Node1&#45;&gt;Node17</title>
<path fill="none" stroke="midnightblue" d="M1570.28,-74.93C1655.55,-71.67 1901.92,-60.23 2104.5,-31 2111.91,-29.93 2119.72,-28.54 2127.32,-27.05"/>
<polygon fill="midnightblue" stroke="midnightblue" points="2128.03,-30.48 2137.13,-25.05 2126.63,-23.62 2128.03,-30.48"/>
</g>
<!-- Node18 -->
<g id="node18" class="node">
<title>Node18</title>
<g id="a_node18"><a xlink:title=" ">
<polygon fill="white" stroke="#bfbfbf" points="2251.5,-0.5 2251.5,-30.5 2379.5,-30.5 2379.5,-0.5 2251.5,-0.5"/>
<text text-anchor="start" x="2259.5" y="-18.5" font-family="Helvetica,sans-Serif" font-size="10.00">deal.II/numerics/vector</text>
<text text-anchor="middle" x="2315.5" y="-7.5" font-family="Helvetica,sans-Serif" font-size="10.00">_tools.h</text>
</a>
</g>
</g>
<!-- Node1&#45;&gt;Node18 -->
<g id="edge17" class="edge">
<title>Node1&#45;&gt;Node18</title>
<path fill="none" stroke="midnightblue" d="M1570.13,-75.48C1667.07,-73.54 1975.92,-65.03 2241.27,-31.04"/>
<polygon fill="midnightblue" stroke="midnightblue" points="2242.02,-34.47 2251.49,-29.71 2241.12,-27.53 2242.02,-34.47"/>
</g>
<!-- Node19 -->
<g id="node19" class="node">
<title>Node19</title>
<g id="a_node19"><a xlink:title=" ">
<polygon fill="white" stroke="#bfbfbf" points="2398,-0.5 2398,-30.5 2517,-30.5 2517,-0.5 2398,-0.5"/>
<text text-anchor="start" x="2406" y="-18.5" font-family="Helvetica,sans-Serif" font-size="10.00">deal.II/numerics/data</text>
<text text-anchor="middle" x="2457.5" y="-7.5" font-family="Helvetica,sans-Serif" font-size="10.00">_out.h</text>
</a>
</g>
</g>
<!-- Node1&#45;&gt;Node19 -->
<g id="edge18" class="edge">
<title>Node1&#45;&gt;Node19</title>
<path fill="none" stroke="midnightblue" d="M1570.11,-76.08C1679.68,-76 2062.58,-72.65 2387.67,-30.95"/>
<polygon fill="midnightblue" stroke="midnightblue" points="2388.29,-34.4 2397.76,-29.64 2387.39,-27.46 2388.29,-34.4"/>
</g>
<!-- Node20 -->
<g id="node20" class="node">
<title>Node20</title>
<g id="a_node20"><a xlink:title=" ">
<polygon fill="white" stroke="#bfbfbf" points="2535,-0.5 2535,-30.5 2656,-30.5 2656,-0.5 2535,-0.5"/>
<text text-anchor="start" x="2543" y="-18.5" font-family="Helvetica,sans-Serif" font-size="10.00">deal.II/numerics/error</text>
<text text-anchor="middle" x="2595.5" y="-7.5" font-family="Helvetica,sans-Serif" font-size="10.00">_estimator.h</text>
</a>
</g>
</g>
<!-- Node1&#45;&gt;Node20 -->
<g id="edge19" class="edge">
<title>Node1&#45;&gt;Node20</title>
<path fill="none" stroke="midnightblue" d="M1570.36,-76.4C1691.21,-77.6 2144.08,-78.54 2524.53,-31.12"/>
<polygon fill="midnightblue" stroke="midnightblue" points="2525.15,-34.57 2534.64,-29.85 2524.28,-27.62 2525.15,-34.57"/>
</g>
<!-- Node21 -->
<g id="node21" class="node">
<title>Node21</title>
<g id="a_node21"><a xlink:title=" ">
<polygon fill="white" stroke="#bfbfbf" points="2674.5,-6 2674.5,-25 2796.5,-25 2796.5,-6 2674.5,-6"/>
<text text-anchor="middle" x="2735.5" y="-13" font-family="Helvetica,sans-Serif" font-size="10.00">deal.II/fe/fe_system.h</text>
</a>
</g>
</g>
<!-- Node1&#45;&gt;Node21 -->
<g id="edge20" class="edge">
<title>Node1&#45;&gt;Node21</title>
<path fill="none" stroke="midnightblue" d="M1570.05,-75.46C1727.07,-72.57 2444.61,-58.1 2665.5,-31 2673.56,-30.01 2682.07,-28.58 2690.27,-27"/>
<polygon fill="midnightblue" stroke="midnightblue" points="2690.97,-30.43 2700.08,-25.02 2689.58,-23.57 2690.97,-30.43"/>
</g>
<!-- Node22 -->
<g id="node22" class="node">
<title>Node22</title>
<g id="a_node22"><a xlink:title=" ">
<polygon fill="white" stroke="#bfbfbf" points="2814.5,-6 2814.5,-25 2906.5,-25 2906.5,-6 2814.5,-6"/>
<text text-anchor="middle" x="2860.5" y="-13" font-family="Helvetica,sans-Serif" font-size="10.00">deal.II/fe/fe_q.h</text>
</a>
</g>
</g>
<!-- Node1&#45;&gt;Node22 -->
<g id="edge21" class="edge">
<title>Node1&#45;&gt;Node22</title>
<path fill="none" stroke="midnightblue" d="M1570.19,-75.83C1739.02,-74.78 2556.25,-67.82 2805.5,-31 2811.32,-30.14 2817.41,-28.9 2823.33,-27.49"/>
<polygon fill="midnightblue" stroke="midnightblue" points="2824.22,-30.88 2833.05,-25.02 2822.5,-24.09 2824.22,-30.88"/>
</g>
<!-- Node23 -->
<g id="node23" class="node">
<title>Node23</title>
<g id="a_node23"><a xlink:title=" ">
<polygon fill="white" stroke="#bfbfbf" points="2925,-6 2925,-25 2980,-25 2980,-6 2925,-6"/>
<text text-anchor="middle" x="2952.5" y="-13" font-family="Helvetica,sans-Serif" font-size="10.00">fstream</text>
</a>
</g>
</g>
<!-- Node1&#45;&gt;Node23 -->
<g id="edge22" class="edge">
<title>Node1&#45;&gt;Node23</title>
<path fill="none" stroke="midnightblue" d="M1570.24,-75.62C1761.05,-73.19 2779.79,-58.95 2915.5,-31 2918.51,-30.38 2921.6,-29.54 2924.64,-28.57"/>
<polygon fill="midnightblue" stroke="midnightblue" points="2925.85,-31.85 2934.06,-25.15 2923.46,-25.27 2925.85,-31.85"/>
</g>
<!-- Node24 -->
<g id="node24" class="node">
<title>Node24</title>
<g id="a_node24"><a xlink:title=" ">
<polygon fill="white" stroke="#bfbfbf" points="2998.5,-6 2998.5,-25 3058.5,-25 3058.5,-6 2998.5,-6"/>
<text text-anchor="middle" x="3028.5" y="-13" font-family="Helvetica,sans-Serif" font-size="10.00">iostream</text>
</a>
</g>
</g>
<!-- Node1&#45;&gt;Node24 -->
<g id="edge23" class="edge">
<title>Node1&#45;&gt;Node24</title>
<path fill="none" stroke="midnightblue" d="M1570.28,-75.64C1767.12,-73.29 2845.84,-59.15 2989.5,-31 2992.94,-30.33 2996.47,-29.39 2999.94,-28.31"/>
<polygon fill="midnightblue" stroke="midnightblue" points="3001.13,-31.6 3009.42,-25 2998.82,-24.99 3001.13,-31.6"/>
</g>
</g>
</svg>
